<svg width="24" height="24" viewBox="0 0 24 24" fill="none" xmlns="http://www.w3.org/2000/svg">
<path d="M12 2.5C17.2469 2.5 21.5 6.75314 21.5 12C21.5 17.2469 17.2469 21.5 12 21.5C6.75314 21.5 2.5 17.2469 2.5 12C2.5 6.75314 6.75314 2.5 12 2.5Z" stroke="#6C839E"/>
<path d="M11.4746 8.375V12.4424L11.8145 12.5576L14.624 13.5068L16.0371 16.3721L16.3711 17.0488L16.8643 16.4775L20.3184 12.4736L21.4941 11.79C21.4957 11.8598 21.5 11.9298 21.5 12C21.5 17.2469 17.2469 21.5 12 21.5C9.56512 21.5 7.25179 20.5525 5.5625 18.9922L8.41211 13.3252L8.66895 12.8135L8.12695 12.6279L2.58496 10.7314C2.7049 9.85205 2.94664 8.99354 3.30469 8.18164L6.78613 9.50195L7.09082 9.61719L7.31934 9.38477L9.10352 7.57324L11.4746 8.375Z" stroke="#6C839E"/>
<path d="M2.041 11.089L7.965 13.1L4.948 19.09M3.04 7.553L6.962 9.033L8.968 7L11.975 8.017V12.084L14.983 13.101L16.486 16.151L19.996 12.084L21.939 10.954M22 12C22 17.523 17.523 22 12 22C6.477 22 2 17.523 2 12C2 6.477 6.477 2 12 2C17.523 2 22 6.477 22 12Z" stroke="#6C839E" stroke-width="2"/>
</svg>
